%TF.GenerationSoftware,KiCad,Pcbnew,9.0.3*%
%TF.CreationDate,2025-07-29T19:30:13-04:00*%
%TF.ProjectId,Pathfinder,50617468-6669-46e6-9465-722e6b696361,rev?*%
%TF.SameCoordinates,Original*%
%TF.FileFunction,Legend,Top*%
%TF.FilePolarity,Positive*%
%FSLAX46Y46*%
G04 Gerber Fmt 4.6, Leading zero omitted, Abs format (unit mm)*
G04 Created by KiCad (PCBNEW 9.0.3) date 2025-07-29 19:30:13*
%MOMM*%
%LPD*%
G01*
G04 APERTURE LIST*
%ADD10C,0.150000*%
%ADD11C,0.101600*%
%ADD12C,0.120000*%
%ADD13C,0.127000*%
%ADD14C,0.100000*%
%ADD15C,0.504000*%
%ADD16C,0.200000*%
G04 APERTURE END LIST*
D10*
X154333333Y-78584819D02*
X154000000Y-78108628D01*
X153761905Y-78584819D02*
X153761905Y-77584819D01*
X153761905Y-77584819D02*
X154142857Y-77584819D01*
X154142857Y-77584819D02*
X154238095Y-77632438D01*
X154238095Y-77632438D02*
X154285714Y-77680057D01*
X154285714Y-77680057D02*
X154333333Y-77775295D01*
X154333333Y-77775295D02*
X154333333Y-77918152D01*
X154333333Y-77918152D02*
X154285714Y-78013390D01*
X154285714Y-78013390D02*
X154238095Y-78061009D01*
X154238095Y-78061009D02*
X154142857Y-78108628D01*
X154142857Y-78108628D02*
X153761905Y-78108628D01*
X155285714Y-78584819D02*
X154714286Y-78584819D01*
X155000000Y-78584819D02*
X155000000Y-77584819D01*
X155000000Y-77584819D02*
X154904762Y-77727676D01*
X154904762Y-77727676D02*
X154809524Y-77822914D01*
X154809524Y-77822914D02*
X154714286Y-77870533D01*
D11*
X161516190Y-72653479D02*
X161516190Y-73167526D01*
X161516190Y-73167526D02*
X161546428Y-73228002D01*
X161546428Y-73228002D02*
X161576666Y-73258241D01*
X161576666Y-73258241D02*
X161637142Y-73288479D01*
X161637142Y-73288479D02*
X161758095Y-73288479D01*
X161758095Y-73288479D02*
X161818571Y-73258241D01*
X161818571Y-73258241D02*
X161848809Y-73228002D01*
X161848809Y-73228002D02*
X161879047Y-73167526D01*
X161879047Y-73167526D02*
X161879047Y-72653479D01*
X162514047Y-73288479D02*
X162151190Y-73288479D01*
X162332618Y-73288479D02*
X162332618Y-72653479D01*
X162332618Y-72653479D02*
X162272142Y-72744193D01*
X162272142Y-72744193D02*
X162211666Y-72804669D01*
X162211666Y-72804669D02*
X162151190Y-72834907D01*
D10*
X163219524Y-100654295D02*
X163219524Y-99854295D01*
X163219524Y-99854295D02*
X163410000Y-99854295D01*
X163410000Y-99854295D02*
X163524286Y-99892390D01*
X163524286Y-99892390D02*
X163600476Y-99968580D01*
X163600476Y-99968580D02*
X163638571Y-100044771D01*
X163638571Y-100044771D02*
X163676667Y-100197152D01*
X163676667Y-100197152D02*
X163676667Y-100311438D01*
X163676667Y-100311438D02*
X163638571Y-100463819D01*
X163638571Y-100463819D02*
X163600476Y-100540009D01*
X163600476Y-100540009D02*
X163524286Y-100616200D01*
X163524286Y-100616200D02*
X163410000Y-100654295D01*
X163410000Y-100654295D02*
X163219524Y-100654295D01*
X163981428Y-99930485D02*
X164019524Y-99892390D01*
X164019524Y-99892390D02*
X164095714Y-99854295D01*
X164095714Y-99854295D02*
X164286190Y-99854295D01*
X164286190Y-99854295D02*
X164362381Y-99892390D01*
X164362381Y-99892390D02*
X164400476Y-99930485D01*
X164400476Y-99930485D02*
X164438571Y-100006676D01*
X164438571Y-100006676D02*
X164438571Y-100082866D01*
X164438571Y-100082866D02*
X164400476Y-100197152D01*
X164400476Y-100197152D02*
X163943333Y-100654295D01*
X163943333Y-100654295D02*
X164438571Y-100654295D01*
X154333333Y-94334819D02*
X154000000Y-93858628D01*
X153761905Y-94334819D02*
X153761905Y-93334819D01*
X153761905Y-93334819D02*
X154142857Y-93334819D01*
X154142857Y-93334819D02*
X154238095Y-93382438D01*
X154238095Y-93382438D02*
X154285714Y-93430057D01*
X154285714Y-93430057D02*
X154333333Y-93525295D01*
X154333333Y-93525295D02*
X154333333Y-93668152D01*
X154333333Y-93668152D02*
X154285714Y-93763390D01*
X154285714Y-93763390D02*
X154238095Y-93811009D01*
X154238095Y-93811009D02*
X154142857Y-93858628D01*
X154142857Y-93858628D02*
X153761905Y-93858628D01*
X155190476Y-93334819D02*
X155000000Y-93334819D01*
X155000000Y-93334819D02*
X154904762Y-93382438D01*
X154904762Y-93382438D02*
X154857143Y-93430057D01*
X154857143Y-93430057D02*
X154761905Y-93572914D01*
X154761905Y-93572914D02*
X154714286Y-93763390D01*
X154714286Y-93763390D02*
X154714286Y-94144342D01*
X154714286Y-94144342D02*
X154761905Y-94239580D01*
X154761905Y-94239580D02*
X154809524Y-94287200D01*
X154809524Y-94287200D02*
X154904762Y-94334819D01*
X154904762Y-94334819D02*
X155095238Y-94334819D01*
X155095238Y-94334819D02*
X155190476Y-94287200D01*
X155190476Y-94287200D02*
X155238095Y-94239580D01*
X155238095Y-94239580D02*
X155285714Y-94144342D01*
X155285714Y-94144342D02*
X155285714Y-93906247D01*
X155285714Y-93906247D02*
X155238095Y-93811009D01*
X155238095Y-93811009D02*
X155190476Y-93763390D01*
X155190476Y-93763390D02*
X155095238Y-93715771D01*
X155095238Y-93715771D02*
X154904762Y-93715771D01*
X154904762Y-93715771D02*
X154809524Y-93763390D01*
X154809524Y-93763390D02*
X154761905Y-93811009D01*
X154761905Y-93811009D02*
X154714286Y-93906247D01*
X154333333Y-84884819D02*
X154000000Y-84408628D01*
X153761905Y-84884819D02*
X153761905Y-83884819D01*
X153761905Y-83884819D02*
X154142857Y-83884819D01*
X154142857Y-83884819D02*
X154238095Y-83932438D01*
X154238095Y-83932438D02*
X154285714Y-83980057D01*
X154285714Y-83980057D02*
X154333333Y-84075295D01*
X154333333Y-84075295D02*
X154333333Y-84218152D01*
X154333333Y-84218152D02*
X154285714Y-84313390D01*
X154285714Y-84313390D02*
X154238095Y-84361009D01*
X154238095Y-84361009D02*
X154142857Y-84408628D01*
X154142857Y-84408628D02*
X153761905Y-84408628D01*
X154666667Y-83884819D02*
X155285714Y-83884819D01*
X155285714Y-83884819D02*
X154952381Y-84265771D01*
X154952381Y-84265771D02*
X155095238Y-84265771D01*
X155095238Y-84265771D02*
X155190476Y-84313390D01*
X155190476Y-84313390D02*
X155238095Y-84361009D01*
X155238095Y-84361009D02*
X155285714Y-84456247D01*
X155285714Y-84456247D02*
X155285714Y-84694342D01*
X155285714Y-84694342D02*
X155238095Y-84789580D01*
X155238095Y-84789580D02*
X155190476Y-84837200D01*
X155190476Y-84837200D02*
X155095238Y-84884819D01*
X155095238Y-84884819D02*
X154809524Y-84884819D01*
X154809524Y-84884819D02*
X154714286Y-84837200D01*
X154714286Y-84837200D02*
X154666667Y-84789580D01*
X193086667Y-84533200D02*
X193229524Y-84580819D01*
X193229524Y-84580819D02*
X193467619Y-84580819D01*
X193467619Y-84580819D02*
X193562857Y-84533200D01*
X193562857Y-84533200D02*
X193610476Y-84485580D01*
X193610476Y-84485580D02*
X193658095Y-84390342D01*
X193658095Y-84390342D02*
X193658095Y-84295104D01*
X193658095Y-84295104D02*
X193610476Y-84199866D01*
X193610476Y-84199866D02*
X193562857Y-84152247D01*
X193562857Y-84152247D02*
X193467619Y-84104628D01*
X193467619Y-84104628D02*
X193277143Y-84057009D01*
X193277143Y-84057009D02*
X193181905Y-84009390D01*
X193181905Y-84009390D02*
X193134286Y-83961771D01*
X193134286Y-83961771D02*
X193086667Y-83866533D01*
X193086667Y-83866533D02*
X193086667Y-83771295D01*
X193086667Y-83771295D02*
X193134286Y-83676057D01*
X193134286Y-83676057D02*
X193181905Y-83628438D01*
X193181905Y-83628438D02*
X193277143Y-83580819D01*
X193277143Y-83580819D02*
X193515238Y-83580819D01*
X193515238Y-83580819D02*
X193658095Y-83628438D01*
X193991429Y-83580819D02*
X194229524Y-84580819D01*
X194229524Y-84580819D02*
X194420000Y-83866533D01*
X194420000Y-83866533D02*
X194610476Y-84580819D01*
X194610476Y-84580819D02*
X194848572Y-83580819D01*
X195753333Y-84580819D02*
X195181905Y-84580819D01*
X195467619Y-84580819D02*
X195467619Y-83580819D01*
X195467619Y-83580819D02*
X195372381Y-83723676D01*
X195372381Y-83723676D02*
X195277143Y-83818914D01*
X195277143Y-83818914D02*
X195181905Y-83866533D01*
X155179524Y-100654295D02*
X155179524Y-99854295D01*
X155179524Y-99854295D02*
X155370000Y-99854295D01*
X155370000Y-99854295D02*
X155484286Y-99892390D01*
X155484286Y-99892390D02*
X155560476Y-99968580D01*
X155560476Y-99968580D02*
X155598571Y-100044771D01*
X155598571Y-100044771D02*
X155636667Y-100197152D01*
X155636667Y-100197152D02*
X155636667Y-100311438D01*
X155636667Y-100311438D02*
X155598571Y-100463819D01*
X155598571Y-100463819D02*
X155560476Y-100540009D01*
X155560476Y-100540009D02*
X155484286Y-100616200D01*
X155484286Y-100616200D02*
X155370000Y-100654295D01*
X155370000Y-100654295D02*
X155179524Y-100654295D01*
X156398571Y-100654295D02*
X155941428Y-100654295D01*
X156170000Y-100654295D02*
X156170000Y-99854295D01*
X156170000Y-99854295D02*
X156093809Y-99968580D01*
X156093809Y-99968580D02*
X156017619Y-100044771D01*
X156017619Y-100044771D02*
X155941428Y-100082866D01*
X171679524Y-100654295D02*
X171679524Y-99854295D01*
X171679524Y-99854295D02*
X171870000Y-99854295D01*
X171870000Y-99854295D02*
X171984286Y-99892390D01*
X171984286Y-99892390D02*
X172060476Y-99968580D01*
X172060476Y-99968580D02*
X172098571Y-100044771D01*
X172098571Y-100044771D02*
X172136667Y-100197152D01*
X172136667Y-100197152D02*
X172136667Y-100311438D01*
X172136667Y-100311438D02*
X172098571Y-100463819D01*
X172098571Y-100463819D02*
X172060476Y-100540009D01*
X172060476Y-100540009D02*
X171984286Y-100616200D01*
X171984286Y-100616200D02*
X171870000Y-100654295D01*
X171870000Y-100654295D02*
X171679524Y-100654295D01*
X172403333Y-99854295D02*
X172898571Y-99854295D01*
X172898571Y-99854295D02*
X172631905Y-100159057D01*
X172631905Y-100159057D02*
X172746190Y-100159057D01*
X172746190Y-100159057D02*
X172822381Y-100197152D01*
X172822381Y-100197152D02*
X172860476Y-100235247D01*
X172860476Y-100235247D02*
X172898571Y-100311438D01*
X172898571Y-100311438D02*
X172898571Y-100501914D01*
X172898571Y-100501914D02*
X172860476Y-100578104D01*
X172860476Y-100578104D02*
X172822381Y-100616200D01*
X172822381Y-100616200D02*
X172746190Y-100654295D01*
X172746190Y-100654295D02*
X172517619Y-100654295D01*
X172517619Y-100654295D02*
X172441428Y-100616200D01*
X172441428Y-100616200D02*
X172403333Y-100578104D01*
X175719524Y-108654295D02*
X175719524Y-107854295D01*
X175719524Y-107854295D02*
X175910000Y-107854295D01*
X175910000Y-107854295D02*
X176024286Y-107892390D01*
X176024286Y-107892390D02*
X176100476Y-107968580D01*
X176100476Y-107968580D02*
X176138571Y-108044771D01*
X176138571Y-108044771D02*
X176176667Y-108197152D01*
X176176667Y-108197152D02*
X176176667Y-108311438D01*
X176176667Y-108311438D02*
X176138571Y-108463819D01*
X176138571Y-108463819D02*
X176100476Y-108540009D01*
X176100476Y-108540009D02*
X176024286Y-108616200D01*
X176024286Y-108616200D02*
X175910000Y-108654295D01*
X175910000Y-108654295D02*
X175719524Y-108654295D01*
X176862381Y-107854295D02*
X176710000Y-107854295D01*
X176710000Y-107854295D02*
X176633809Y-107892390D01*
X176633809Y-107892390D02*
X176595714Y-107930485D01*
X176595714Y-107930485D02*
X176519524Y-108044771D01*
X176519524Y-108044771D02*
X176481428Y-108197152D01*
X176481428Y-108197152D02*
X176481428Y-108501914D01*
X176481428Y-108501914D02*
X176519524Y-108578104D01*
X176519524Y-108578104D02*
X176557619Y-108616200D01*
X176557619Y-108616200D02*
X176633809Y-108654295D01*
X176633809Y-108654295D02*
X176786190Y-108654295D01*
X176786190Y-108654295D02*
X176862381Y-108616200D01*
X176862381Y-108616200D02*
X176900476Y-108578104D01*
X176900476Y-108578104D02*
X176938571Y-108501914D01*
X176938571Y-108501914D02*
X176938571Y-108311438D01*
X176938571Y-108311438D02*
X176900476Y-108235247D01*
X176900476Y-108235247D02*
X176862381Y-108197152D01*
X176862381Y-108197152D02*
X176786190Y-108159057D01*
X176786190Y-108159057D02*
X176633809Y-108159057D01*
X176633809Y-108159057D02*
X176557619Y-108197152D01*
X176557619Y-108197152D02*
X176519524Y-108235247D01*
X176519524Y-108235247D02*
X176481428Y-108311438D01*
X158989524Y-108654295D02*
X158989524Y-107854295D01*
X158989524Y-107854295D02*
X159180000Y-107854295D01*
X159180000Y-107854295D02*
X159294286Y-107892390D01*
X159294286Y-107892390D02*
X159370476Y-107968580D01*
X159370476Y-107968580D02*
X159408571Y-108044771D01*
X159408571Y-108044771D02*
X159446667Y-108197152D01*
X159446667Y-108197152D02*
X159446667Y-108311438D01*
X159446667Y-108311438D02*
X159408571Y-108463819D01*
X159408571Y-108463819D02*
X159370476Y-108540009D01*
X159370476Y-108540009D02*
X159294286Y-108616200D01*
X159294286Y-108616200D02*
X159180000Y-108654295D01*
X159180000Y-108654295D02*
X158989524Y-108654295D01*
X160132381Y-108120961D02*
X160132381Y-108654295D01*
X159941905Y-107816200D02*
X159751428Y-108387628D01*
X159751428Y-108387628D02*
X160246667Y-108387628D01*
X154333333Y-91184819D02*
X154000000Y-90708628D01*
X153761905Y-91184819D02*
X153761905Y-90184819D01*
X153761905Y-90184819D02*
X154142857Y-90184819D01*
X154142857Y-90184819D02*
X154238095Y-90232438D01*
X154238095Y-90232438D02*
X154285714Y-90280057D01*
X154285714Y-90280057D02*
X154333333Y-90375295D01*
X154333333Y-90375295D02*
X154333333Y-90518152D01*
X154333333Y-90518152D02*
X154285714Y-90613390D01*
X154285714Y-90613390D02*
X154238095Y-90661009D01*
X154238095Y-90661009D02*
X154142857Y-90708628D01*
X154142857Y-90708628D02*
X153761905Y-90708628D01*
X155238095Y-90184819D02*
X154761905Y-90184819D01*
X154761905Y-90184819D02*
X154714286Y-90661009D01*
X154714286Y-90661009D02*
X154761905Y-90613390D01*
X154761905Y-90613390D02*
X154857143Y-90565771D01*
X154857143Y-90565771D02*
X155095238Y-90565771D01*
X155095238Y-90565771D02*
X155190476Y-90613390D01*
X155190476Y-90613390D02*
X155238095Y-90661009D01*
X155238095Y-90661009D02*
X155285714Y-90756247D01*
X155285714Y-90756247D02*
X155285714Y-90994342D01*
X155285714Y-90994342D02*
X155238095Y-91089580D01*
X155238095Y-91089580D02*
X155190476Y-91137200D01*
X155190476Y-91137200D02*
X155095238Y-91184819D01*
X155095238Y-91184819D02*
X154857143Y-91184819D01*
X154857143Y-91184819D02*
X154761905Y-91137200D01*
X154761905Y-91137200D02*
X154714286Y-91089580D01*
X167489524Y-108654295D02*
X167489524Y-107854295D01*
X167489524Y-107854295D02*
X167680000Y-107854295D01*
X167680000Y-107854295D02*
X167794286Y-107892390D01*
X167794286Y-107892390D02*
X167870476Y-107968580D01*
X167870476Y-107968580D02*
X167908571Y-108044771D01*
X167908571Y-108044771D02*
X167946667Y-108197152D01*
X167946667Y-108197152D02*
X167946667Y-108311438D01*
X167946667Y-108311438D02*
X167908571Y-108463819D01*
X167908571Y-108463819D02*
X167870476Y-108540009D01*
X167870476Y-108540009D02*
X167794286Y-108616200D01*
X167794286Y-108616200D02*
X167680000Y-108654295D01*
X167680000Y-108654295D02*
X167489524Y-108654295D01*
X168670476Y-107854295D02*
X168289524Y-107854295D01*
X168289524Y-107854295D02*
X168251428Y-108235247D01*
X168251428Y-108235247D02*
X168289524Y-108197152D01*
X168289524Y-108197152D02*
X168365714Y-108159057D01*
X168365714Y-108159057D02*
X168556190Y-108159057D01*
X168556190Y-108159057D02*
X168632381Y-108197152D01*
X168632381Y-108197152D02*
X168670476Y-108235247D01*
X168670476Y-108235247D02*
X168708571Y-108311438D01*
X168708571Y-108311438D02*
X168708571Y-108501914D01*
X168708571Y-108501914D02*
X168670476Y-108578104D01*
X168670476Y-108578104D02*
X168632381Y-108616200D01*
X168632381Y-108616200D02*
X168556190Y-108654295D01*
X168556190Y-108654295D02*
X168365714Y-108654295D01*
X168365714Y-108654295D02*
X168289524Y-108616200D01*
X168289524Y-108616200D02*
X168251428Y-108578104D01*
X154333333Y-81734819D02*
X154000000Y-81258628D01*
X153761905Y-81734819D02*
X153761905Y-80734819D01*
X153761905Y-80734819D02*
X154142857Y-80734819D01*
X154142857Y-80734819D02*
X154238095Y-80782438D01*
X154238095Y-80782438D02*
X154285714Y-80830057D01*
X154285714Y-80830057D02*
X154333333Y-80925295D01*
X154333333Y-80925295D02*
X154333333Y-81068152D01*
X154333333Y-81068152D02*
X154285714Y-81163390D01*
X154285714Y-81163390D02*
X154238095Y-81211009D01*
X154238095Y-81211009D02*
X154142857Y-81258628D01*
X154142857Y-81258628D02*
X153761905Y-81258628D01*
X154714286Y-80830057D02*
X154761905Y-80782438D01*
X154761905Y-80782438D02*
X154857143Y-80734819D01*
X154857143Y-80734819D02*
X155095238Y-80734819D01*
X155095238Y-80734819D02*
X155190476Y-80782438D01*
X155190476Y-80782438D02*
X155238095Y-80830057D01*
X155238095Y-80830057D02*
X155285714Y-80925295D01*
X155285714Y-80925295D02*
X155285714Y-81020533D01*
X155285714Y-81020533D02*
X155238095Y-81163390D01*
X155238095Y-81163390D02*
X154666667Y-81734819D01*
X154666667Y-81734819D02*
X155285714Y-81734819D01*
X154333333Y-88034819D02*
X154000000Y-87558628D01*
X153761905Y-88034819D02*
X153761905Y-87034819D01*
X153761905Y-87034819D02*
X154142857Y-87034819D01*
X154142857Y-87034819D02*
X154238095Y-87082438D01*
X154238095Y-87082438D02*
X154285714Y-87130057D01*
X154285714Y-87130057D02*
X154333333Y-87225295D01*
X154333333Y-87225295D02*
X154333333Y-87368152D01*
X154333333Y-87368152D02*
X154285714Y-87463390D01*
X154285714Y-87463390D02*
X154238095Y-87511009D01*
X154238095Y-87511009D02*
X154142857Y-87558628D01*
X154142857Y-87558628D02*
X153761905Y-87558628D01*
X155190476Y-87368152D02*
X155190476Y-88034819D01*
X154952381Y-86987200D02*
X154714286Y-87701485D01*
X154714286Y-87701485D02*
X155333333Y-87701485D01*
D12*
%TO.C,R1*%
X152580000Y-79130000D02*
X156420000Y-79130000D01*
X152580000Y-80970000D02*
X156420000Y-80970000D01*
D13*
%TO.C,U1*%
X161610000Y-93509000D02*
X161610000Y-76364000D01*
X163515000Y-95414000D02*
X177485000Y-95414000D01*
X166005000Y-74459000D02*
X166008728Y-73548728D01*
X166508728Y-73049000D02*
X174504000Y-73049000D01*
X175004000Y-73549000D02*
X175004000Y-74459000D01*
D14*
X177485000Y-74459000D02*
X163515000Y-74459000D01*
D13*
X177485000Y-74459000D02*
X163515000Y-74459000D01*
X179390000Y-93509000D02*
X179390000Y-76364000D01*
X161610000Y-76364000D02*
G75*
G02*
X163515000Y-74459000I1905001J-1D01*
G01*
X163515000Y-95414000D02*
G75*
G02*
X161610000Y-93509000I1J1905001D01*
G01*
X166008728Y-73548728D02*
G75*
G02*
X166508728Y-73049001I500018J-291D01*
G01*
X174504000Y-73049000D02*
G75*
G02*
X175004000Y-73549000I0J-500000D01*
G01*
X177485000Y-74459000D02*
G75*
G02*
X179390000Y-76364000I0J-1905000D01*
G01*
X179390000Y-93509000D02*
G75*
G02*
X177485000Y-95414000I-1905000J0D01*
G01*
D15*
X161802000Y-74700000D02*
G75*
G02*
X161298000Y-74700000I-252000J0D01*
G01*
X161298000Y-74700000D02*
G75*
G02*
X161802000Y-74700000I252000J0D01*
G01*
X162945000Y-75580000D02*
G75*
G02*
X162441000Y-75580000I-252000J0D01*
G01*
X162441000Y-75580000D02*
G75*
G02*
X162945000Y-75580000I252000J0D01*
G01*
D13*
%TO.C,D2*%
X161270000Y-102434000D02*
X161270000Y-105566000D01*
X161270000Y-102434000D02*
G75*
G02*
X161270000Y-105566000I2506124J-1566000D01*
G01*
D16*
X160670000Y-104000000D02*
G75*
G02*
X160470000Y-104000000I-100000J0D01*
G01*
X160470000Y-104000000D02*
G75*
G02*
X160670000Y-104000000I100000J0D01*
G01*
D12*
%TO.C,R6*%
X152580000Y-94880000D02*
X156420000Y-94880000D01*
X152580000Y-96720000D02*
X156420000Y-96720000D01*
%TO.C,R3*%
X152580000Y-85430000D02*
X156420000Y-85430000D01*
X152580000Y-87270000D02*
X156420000Y-87270000D01*
%TO.C,SW1*%
X187435000Y-85015000D02*
X201405000Y-85015000D01*
X187435000Y-98985000D02*
X187435000Y-85015000D01*
X201405000Y-85015000D02*
X201405000Y-98985000D01*
X201405000Y-98985000D02*
X187435000Y-98985000D01*
D13*
%TO.C,D1*%
X153230000Y-102434000D02*
X153230000Y-105566000D01*
X153230000Y-102434000D02*
G75*
G02*
X153230000Y-105566000I2506124J-1566000D01*
G01*
D16*
X152630000Y-104000000D02*
G75*
G02*
X152430000Y-104000000I-100000J0D01*
G01*
X152430000Y-104000000D02*
G75*
G02*
X152630000Y-104000000I100000J0D01*
G01*
D13*
%TO.C,D3*%
X169730000Y-102434000D02*
X169730000Y-105566000D01*
X169730000Y-102434000D02*
G75*
G02*
X169730000Y-105566000I2506124J-1566000D01*
G01*
D16*
X169130000Y-104000000D02*
G75*
G02*
X168930000Y-104000000I-100000J0D01*
G01*
X168930000Y-104000000D02*
G75*
G02*
X169130000Y-104000000I100000J0D01*
G01*
D13*
%TO.C,D6*%
X173770000Y-110434000D02*
X173770000Y-113566000D01*
X173770000Y-110434000D02*
G75*
G02*
X173770000Y-113566000I2506124J-1566000D01*
G01*
D16*
X173170000Y-112000000D02*
G75*
G02*
X172970000Y-112000000I-100000J0D01*
G01*
X172970000Y-112000000D02*
G75*
G02*
X173170000Y-112000000I100000J0D01*
G01*
D13*
%TO.C,D4*%
X157040000Y-110434000D02*
X157040000Y-113566000D01*
X157040000Y-110434000D02*
G75*
G02*
X157040000Y-113566000I2506124J-1566000D01*
G01*
D16*
X156440000Y-112000000D02*
G75*
G02*
X156240000Y-112000000I-100000J0D01*
G01*
X156240000Y-112000000D02*
G75*
G02*
X156440000Y-112000000I100000J0D01*
G01*
D12*
%TO.C,R5*%
X152580000Y-91730000D02*
X156420000Y-91730000D01*
X152580000Y-93570000D02*
X156420000Y-93570000D01*
D13*
%TO.C,D5*%
X165540000Y-110434000D02*
X165540000Y-113566000D01*
X165540000Y-110434000D02*
G75*
G02*
X165540000Y-113566000I2506124J-1566000D01*
G01*
D16*
X164940000Y-112000000D02*
G75*
G02*
X164740000Y-112000000I-100000J0D01*
G01*
X164740000Y-112000000D02*
G75*
G02*
X164940000Y-112000000I100000J0D01*
G01*
D12*
%TO.C,R2*%
X152580000Y-82280000D02*
X156420000Y-82280000D01*
X152580000Y-84120000D02*
X156420000Y-84120000D01*
%TO.C,R4*%
X152580000Y-88580000D02*
X156420000Y-88580000D01*
X152580000Y-90420000D02*
X156420000Y-90420000D01*
%TD*%
M02*
