M48
; DRILL file {KiCad 9.0.3} date 2025-07-29T19:30:15-0400
; FORMAT={-:-/ absolute / metric / decimal}
; #@! TF.CreationDate,2025-07-29T19:30:15-04:00
; #@! TF.GenerationSoftware,Kicad,Pcbnew,9.0.3
; #@! TF.FileFunction,Plated,1,2,PTH
FMAT,2
METRIC
; #@! TA.AperFunction,Plated,PTH,ViaDrill
T1C0.400
; #@! TA.AperFunction,Plated,PTH,ComponentDrill
T2C0.700
; #@! TA.AperFunction,Plated,PTH,ComponentDrill
T3C0.889
; #@! TA.AperFunction,Plated,PTH,ComponentDrill
T4C1.210
; #@! TA.AperFunction,Plated,PTH,ComponentDrill
T5C1.500
%
G90
G05
T1
X167.262Y-101.892
T2
X151.96Y-80.05
X151.96Y-83.2
X151.96Y-86.35
X151.96Y-89.5
X151.96Y-92.65
X151.96Y-95.8
X157.04Y-80.05
X157.04Y-83.2
X157.04Y-86.35
X157.04Y-89.5
X157.04Y-92.65
X157.04Y-95.8
T3
X162.88Y-77.38
X162.88Y-79.92
X162.88Y-82.46
X162.88Y-85.0
X162.88Y-87.54
X162.88Y-90.08
X162.88Y-92.62
X178.12Y-77.38
X178.12Y-79.92
X178.12Y-82.46
X178.12Y-85.0
X178.12Y-87.54
X178.12Y-90.08
X178.12Y-92.62
T4
X154.46Y-104.0
X157.0Y-104.0
X158.27Y-112.0
X160.81Y-112.0
X162.5Y-104.0
X165.04Y-104.0
X166.77Y-112.0
X169.31Y-112.0
X170.96Y-104.0
X173.5Y-104.0
X175.0Y-112.0
X177.54Y-112.0
T5
X190.61Y-89.46
X196.96Y-86.92
M30
